<svg width="110" height="129" viewBox="0 0 110 129" fill="none" xmlns="http://www.w3.org/2000/svg">
<path d="M102.873 94.57C101.163 97.59 99.1327 100.43 96.8326 103.04L96.8926 103.1L94.7526 105.25C85.2327 114.83 72.5426 120.11 59.0326 120.11C45.5226 120.11 32.9327 114.87 23.4127 105.36C13.9027 95.85 8.66265 83.2 8.66265 69.75C8.66265 68.76 8.69265 67.75 8.75265 66.75C8.75265 66.61 8.76265 66.47 8.77265 66.33V66.29C8.77265 66.2 8.79265 66.11 8.79265 66.01V65.96C8.81265 65.75 8.83265 65.54 8.84265 65.34C8.86265 65.17 8.87265 64.99 8.89265 64.81C8.92265 64.54 8.94265 64.27 8.97265 64C8.99265 63.84 9.01265 63.6701 9.03265 63.4901C9.05265 63.2701 9.09265 63.02 9.12265 62.77C9.14265 62.63 9.16265 62.5 9.18265 62.36C9.21265 62.13 9.25265 61.88 9.29265 61.63C9.31265 61.5 9.34265 61.35 9.36265 61.2C9.38265 61.08 9.40265 60.95 9.43265 60.83C9.46265 60.67 9.49265 60.48 9.52265 60.31C9.55265 60.15 9.58265 59.98 9.62265 59.81C9.66265 59.61 9.70265 59.42 9.74265 59.22C10.0327 57.85 10.3826 56.4701 10.7926 55.1201V55.08C10.8526 54.9 10.9126 54.73 10.9726 54.55C11.0226 54.4 11.0626 54.25 11.1227 54.09C11.4026 53.21 11.7227 52.32 12.0627 51.46C12.1127 51.34 12.1526 51.21 12.2126 51.09C12.2626 50.96 12.3226 50.8201 12.3727 50.6801C12.4426 50.5101 12.5127 50.33 12.5927 50.15C12.6527 50.01 12.7126 49.86 12.7826 49.7L12.8127 49.63C12.9027 49.42 12.9927 49.21 13.0927 49C13.1627 48.85 13.2327 48.69 13.3027 48.54C14.5727 45.8 16.1126 43.15 17.8727 40.66L18.1526 40.27C18.3526 39.99 18.5526 39.72 18.7526 39.46C18.8526 39.34 18.9527 39.2 19.0527 39.07C19.2726 38.79 19.4926 38.5 19.7226 38.22C19.8526 38.06 19.9827 37.89 20.1227 37.73C20.2427 37.58 20.3827 37.42 20.5227 37.25C20.6527 37.09 20.7926 36.93 20.9326 36.77C21.0826 36.59 21.2426 36.41 21.4026 36.23L15.4927 30.31C5.68265 41.12 0.292648 55.07 0.292648 69.73C0.292648 85.42 6.40265 100.16 17.4927 111.25C28.5827 122.34 43.3327 128.45 59.0127 128.45C74.6927 128.45 89.5326 122.31 100.623 111.15C103.793 107.97 106.583 104.44 108.943 100.65L102.843 94.55L102.873 94.57Z" fill="#1AB26B"/>
<path d="M27.7226 101.06C36.0826 109.42 47.2126 114.03 59.0426 114.03C59.4126 114.03 59.7826 114.03 60.1526 114.01C60.3326 114.01 60.5126 114.01 60.7026 113.99H60.7326C61.0026 113.98 61.2726 113.97 61.5526 113.95C61.7726 113.94 61.9826 113.93 62.2026 113.91C62.3126 113.91 62.4126 113.89 62.5026 113.89H62.6526C62.8526 113.86 63.0526 113.84 63.2526 113.82C63.4326 113.81 63.6026 113.79 63.7726 113.77C63.8926 113.76 64.0026 113.75 64.1026 113.73L64.3226 113.71C64.4726 113.69 64.6126 113.67 64.7626 113.65C65.3126 113.58 65.8526 113.5 66.3726 113.42C66.5226 113.4 66.6626 113.37 66.8126 113.34H66.8626C66.9826 113.31 67.0926 113.29 67.2126 113.27H67.2726C67.4226 113.23 67.5726 113.2 67.7226 113.17C68.1226 113.09 68.5126 113.01 68.9026 112.92C69.1626 112.86 69.4226 112.8 69.6826 112.74H69.7126C69.7826 112.72 69.8426 112.7 69.9126 112.68C70.1026 112.63 70.2826 112.59 70.4526 112.54C70.6026 112.5 70.7426 112.46 70.8826 112.42C71.0026 112.39 71.1126 112.36 71.2226 112.33C71.3226 112.3 71.4026 112.28 71.4826 112.25L71.5426 112.23C71.6526 112.2 71.7626 112.17 71.8726 112.13C72.0526 112.08 72.2126 112.03 72.3726 111.98C72.5026 111.94 72.6126 111.9 72.7326 111.87C73.1026 111.75 73.4726 111.62 73.8426 111.49C73.9426 111.45 74.0426 111.42 74.1326 111.38L74.2026 111.36C74.3326 111.31 74.4526 111.27 74.5626 111.23C74.7426 111.16 74.9126 111.1 75.0726 111.04C75.2126 110.99 75.3326 110.94 75.4526 110.89C75.6826 110.8 75.8826 110.72 76.0926 110.63L76.7126 110.37C76.9026 110.29 77.0926 110.21 77.2726 110.12C77.3826 110.07 77.4726 110.03 77.5626 109.99L77.6526 109.95C77.8027 109.88 77.9526 109.81 78.1026 109.73C79.0326 109.29 79.9526 108.81 80.8426 108.31C80.9426 108.26 81.0326 108.2 81.1226 108.15C81.3326 108.03 81.5326 107.91 81.7326 107.79L82.7426 107.17C83.1926 106.89 83.6526 106.58 84.1526 106.24C84.2926 106.14 84.4326 106.05 84.5626 105.95L84.6226 105.91C84.7226 105.84 84.8326 105.76 84.9326 105.69L84.9626 105.67C85.0426 105.62 85.1126 105.56 85.1826 105.51L85.2126 105.49C85.3426 105.4 85.4626 105.31 85.5926 105.21C85.7326 105.1 85.8726 105 86.0026 104.9C86.0926 104.83 86.1726 104.76 86.2526 104.7L86.3426 104.63C86.4826 104.52 86.6227 104.41 86.7626 104.3C86.9127 104.18 87.0426 104.07 87.1826 103.95L87.2226 103.92C87.4926 103.7 87.7526 103.48 88.0126 103.25C88.0927 103.18 88.1726 103.11 88.2526 103.04L82.3326 97.1201C75.8526 102.65 67.6326 105.67 59.0526 105.67C39.2426 105.67 23.1226 89.55 23.1226 69.7401C23.1226 60.0901 26.9026 51.02 33.7526 44.23C36.9726 41.04 40.8226 38.4501 44.9826 36.6801L38.7026 30.4C34.7026 32.48 31.0426 35.14 27.8226 38.34C19.3926 46.72 14.7526 57.87 14.7526 69.75C14.7526 81.63 19.3626 92.7 27.7226 101.07V101.06Z" fill="#1AB26B"/>
<path d="M109.283 58.72C109.283 43.04 103.173 28.29 92.0827 17.2C80.9927 6.11001 66.2427 0 50.5627 0C34.8827 0 20.0427 6.14005 8.95266 17.3C5.78266 20.48 2.99265 24.01 0.642654 27.8L6.74266 33.9C8.45266 30.88 10.4827 28.0401 12.7827 25.4301L12.7227 25.3701L14.8627 23.22C24.3827 13.63 37.0727 8.36005 50.5827 8.36005C64.0927 8.36005 76.6827 13.6 86.1927 23.11C95.7027 32.62 100.943 45.27 100.943 58.72C100.943 59.72 100.913 60.73 100.853 61.72C100.853 61.85 100.833 62 100.833 62.14C100.833 62.24 100.813 62.34 100.813 62.45V62.5C100.793 62.71 100.773 62.9201 100.763 63.1201C100.743 63.2901 100.733 63.48 100.713 63.66C100.683 63.92 100.663 64.2 100.633 64.47C100.613 64.63 100.593 64.8 100.573 64.98C100.553 65.2 100.513 65.45 100.483 65.7C100.463 65.84 100.443 65.97 100.423 66.11C100.393 66.34 100.353 66.59 100.313 66.84C100.293 66.97 100.263 67.12 100.243 67.27C100.223 67.39 100.203 67.52 100.173 67.64C100.153 67.8 100.113 67.99 100.083 68.16C100.053 68.32 100.023 68.49 99.9827 68.66C99.9426 68.85 99.9027 69.05 99.8627 69.25C99.5727 70.62 99.2227 72.01 98.8127 73.35C98.7527 73.54 98.7027 73.73 98.6327 73.92C98.5827 74.07 98.5426 74.22 98.4827 74.38C98.1926 75.26 97.8827 76.15 97.5427 77.01C97.4927 77.13 97.4527 77.25 97.4027 77.38C97.3527 77.52 97.2926 77.65 97.2327 77.79C97.1627 77.96 97.0827 78.14 97.0127 78.32C96.9527 78.46 96.8927 78.61 96.8227 78.77L96.7927 78.84C96.7027 79.05 96.6127 79.26 96.5127 79.46C96.4427 79.61 96.3727 79.77 96.3027 79.92C95.0327 82.66 93.4927 85.3101 91.7327 87.8L91.4527 88.19C91.2527 88.47 91.0527 88.74 90.8527 89C90.7527 89.13 90.6527 89.26 90.5527 89.39C90.3327 89.67 90.1127 89.9601 89.8827 90.2401C89.7527 90.4001 89.6227 90.57 89.4827 90.73C89.3626 90.87 89.2427 91.0201 89.1127 91.1801L89.0927 91.21C88.9527 91.37 88.8127 91.53 88.6727 91.69C88.5227 91.87 88.3627 92.05 88.2027 92.23L94.1127 98.15C103.923 87.34 109.313 73.39 109.313 58.72H109.283Z" fill="#1AB26B"/>
<path d="M64.6226 91.79L70.9027 98.07C74.9027 95.99 78.5626 93.33 81.7826 90.13C90.2126 81.75 94.8527 70.6 94.8527 58.72C94.8527 46.84 90.2427 35.77 81.8827 27.41C73.5227 19.05 62.3926 14.44 50.5626 14.44C50.1926 14.44 49.8226 14.44 49.4526 14.46C49.2726 14.46 49.0827 14.46 48.9027 14.48H48.8726C48.6026 14.49 48.3327 14.5 48.0527 14.52C47.8327 14.53 47.6227 14.54 47.4027 14.56C47.2927 14.56 47.1927 14.58 47.1027 14.58H46.9526C46.7626 14.61 46.5527 14.63 46.3527 14.64C46.1727 14.66 46.0026 14.67 45.8326 14.69C45.7126 14.7 45.6027 14.71 45.4927 14.73L45.3227 14.75C45.3227 14.75 45.2827 14.75 45.2627 14.75C45.1127 14.77 44.9826 14.78 44.8326 14.8C44.2826 14.87 43.7426 14.95 43.2226 15.04C43.0726 15.06 42.9326 15.0901 42.7826 15.1201H42.7326C42.6126 15.1501 42.5127 15.17 42.4027 15.19H42.3326C42.1826 15.23 42.0426 15.26 41.8926 15.29C41.4826 15.37 41.0926 15.45 40.7026 15.54C40.4426 15.6 40.1827 15.66 39.9227 15.72H39.8926C39.8226 15.74 39.7626 15.76 39.6926 15.77C39.5026 15.82 39.3226 15.86 39.1526 15.91C39.0026 15.95 38.8626 15.99 38.7226 16.03C38.6026 16.06 38.4927 16.0901 38.3827 16.1201C38.2827 16.1501 38.2027 16.17 38.1227 16.2L38.0627 16.22C37.9527 16.25 37.8427 16.28 37.7327 16.32C37.5527 16.37 37.3927 16.42 37.2327 16.47C37.1027 16.51 36.9927 16.55 36.8727 16.58C36.5027 16.7 36.1326 16.83 35.7626 16.96C35.6626 16.99 35.5727 17.03 35.4827 17.06L35.3926 17.09C35.2726 17.14 35.1626 17.17 35.0426 17.22C34.8526 17.29 34.6927 17.35 34.5227 17.42C34.3827 17.47 34.2726 17.52 34.1426 17.57C33.9126 17.66 33.7126 17.74 33.5026 17.83L32.8827 18.09C32.6927 18.17 32.5026 18.25 32.3226 18.34C32.2126 18.39 32.1226 18.43 32.0326 18.47L31.9426 18.51C31.7927 18.58 31.6427 18.65 31.4927 18.73C30.5627 19.17 29.6426 19.65 28.7526 20.15C28.6526 20.2 28.5626 20.26 28.4726 20.31C28.2826 20.42 28.0826 20.53 27.8926 20.65L27.2526 21.04C27.1226 21.12 26.9827 21.21 26.8427 21.29C26.3927 21.57 25.9326 21.88 25.4326 22.22C25.3026 22.31 25.1827 22.4 25.0527 22.48L24.9726 22.54C24.8526 22.62 24.7526 22.69 24.6526 22.77L24.6126 22.8C24.5426 22.85 24.4726 22.9 24.4026 22.95L24.3727 22.97C24.2427 23.06 24.1227 23.15 23.9927 23.25C23.8527 23.36 23.7126 23.46 23.5826 23.56C23.4826 23.63 23.4026 23.7 23.3326 23.76L23.2327 23.84C23.0927 23.95 22.9527 24.06 22.8127 24.17C22.6527 24.29 22.5027 24.42 22.3527 24.55C22.0827 24.77 21.8227 24.99 21.5627 25.22C21.4827 25.29 21.4026 25.3601 21.3226 25.4301L27.2427 31.35C33.7227 25.82 41.9427 22.79 50.5227 22.79C70.3326 22.79 86.4526 38.91 86.4526 58.72C86.4526 68.38 82.6727 77.4401 75.8227 84.2401C72.6027 87.4301 68.7526 90.02 64.5926 91.79H64.6226Z" fill="#1AB26B"/>
</svg>
